<svg xmlns="http://www.w3.org/2000/svg" xmlns:xlink="http://www.w3.org/1999/xlink" width="78" height="78" viewBox="0 0 78 78">
    <defs>
        <path id="a" d="M0 1.085h77.322v77.82H0z"/>
    </defs>
    <g fill="none" fill-rule="evenodd">
        <g transform="translate(0 -.99)">
            <mask id="b" fill="#fff">
                <use xlink:href="#a"/>
            </mask>
            <path fill="#89B753" d="M77.322 39.995c0 21.488-17.31 38.91-38.661 38.91C17.31 78.905 0 61.483 0 39.995c0-21.49 17.31-38.91 38.66-38.91 21.353 0 38.662 17.42 38.662 38.91" mask="url(#b)"/>
        </g>
        <path stroke="#FEFEFE" stroke-linecap="round" stroke-linejoin="round" stroke-width="1.5" d="M42.74 19.746h-1.742s-1.41.522-2.76 2.034c-1.348 1.513-2.994 1.688-3 6.401-.006 4.714.598 4.505 1.384 5.443.788.94.995 1.775.58 2.715-.415.938-1.965 1.437-1.965 3.86v21.29s.253 3.652 3.753 1.147c0 0 .61-.95 1.254.208 0 0 2.45 2.818 4.01.669 1.56-2.15 2.251-.877 2.251-.877 3.5 2.505 3.751-1.147 3.751-1.147v-21.29c0-2.423-1.548-2.922-1.962-3.86-.415-.94-.208-1.775.578-2.715.788-.938 1.39-.73 1.384-5.443-.006-4.713-1.651-4.888-3-6.4-1.348-1.513-2.76-2.035-2.76-2.035h-1.755zM35.238 43.271h14.331M35.238 53.711h15.006M38.408 27.836s.056-4.35 2.59-5.593M40.568 17.975h4.26M42.504 13.69h1.438s1.307.158 1.308 1.21v1.344h-2.616.207-2.616v-1.343c0-1.053 1.307-1.211 1.307-1.211h1.44"/>
        <path fill="#FEFEFE" d="M40.244 54.091c0 4.615-3.716 8.355-8.3 8.355-4.586 0-8.302-3.74-8.302-8.355 0-4.614 3.716-8.355 8.301-8.355s8.301 3.741 8.301 8.355"/>
        <path stroke="#89B753" stroke-linecap="round" stroke-linejoin="round" stroke-width="1.5" d="M28.534 57.943l6.818-6.863M28.534 51.081l6.818 6.862"/>
    </g>
</svg>
